<svg id="Layer_1" data-name="Layer 1" xmlns="http://www.w3.org/2000/svg" viewBox="0 0 314.95 314.95"><defs><style>.cls-1{fill:#fff;}</style></defs><title>logo</title><path class="cls-1" d="M242.49,48.36v20.9c55.07,17.94,95,69.76,95,130.74,0,75.8-61.67,137.47-137.47,137.47q-3.78,0-7.51-.21V325.47h0v-20h0V94.57h0v-20a125.26,125.26,0,0,0-20,2.82V302.06A105.88,105.88,0,0,1,94.3,200h-20c0,59.86,42.07,110.07,98.19,122.65v31.93h.06v.49a157.81,157.81,0,0,0,27.45,2.4c86.83,0,157.47-70.64,157.47-157.47C357.47,127.89,308.75,66.95,242.49,48.36Z" transform="translate(-42.53 -42.53)"/><path class="cls-1" d="M62.53,200C62.53,124.2,124.2,62.53,200,62.53q3.77,0,7.5.21V324.9l58.4-69.1,30,25.36a125.46,125.46,0,0,0,14.24-141.68l-14,16.55a105.57,105.57,0,0,1-4.2,96.11l-28.09-23.69-10,11.83L227.5,271.2V52.53h0V44.93A157.81,157.81,0,0,0,200,42.53C113.17,42.53,42.53,113.17,42.53,200c0,72.13,48.75,133.08,115,151.65v-20.9C102.46,312.83,62.53,261,62.53,200Z" transform="translate(-42.53 -42.53)"/></svg>